# File created by Blade
# Date/Time:  Wed Jan 21 19:08:52 2015
# Frame Rate: 120.000 fps
#------------------------------------------------------
:FULLY-SPECIFIED
:DEGREES
2497
root -7.738646 32.621420 -3.833321 52.573562 28.032839 3.329563
RightUpLeg -54.848050 -11.503410 22.210266
RightLeg 6.359837 -0.000000 -0.000000
RightFoot -18.390442 -16.692310 17.384642
RightToeBase 14.870321 -0.000000 -0.000000
LeftUpLeg -39.645684 -6.655139 -2.351674
LeftLeg 18.446017 -0.000000 -0.000000
LeftFoot -20.432921 -5.129691 -15.206304
LeftToeBase 5.990288 -0.000000 -0.000000
Spine -46.921052 -1.301968 7.363582
RightShoulder -19.566855 6.178841 -30.871036
RightArm -5.501052 -6.304747 75.205268
RightForeArm 26.234063 0.000000 3.428110
RightHand 16.820633 -0.000000 -1.441614
RightHandThumb1 -24.326973 -0.000000 -32.862282
LeftShoulder -9.833009 2.945947 42.862979
LeftArm 20.614917 -11.128262 -40.970402
LeftForeArm 4.785215 -0.000000 0.866763
LeftHand -14.897521 0.000000 -6.155062
LeftHandThumb1 -26.253704 0.000000 33.147579
Head 27.710576 -33.991122 10.939608
2498
root -7.770617 32.613499 -3.835538 52.698564 28.803778 3.248695
RightUpLeg -54.956323 -11.450548 22.460981
RightLeg 6.304506 -0.000000 -0.000000
RightFoot -18.576705 -17.108058 17.644617
RightToeBase 14.807745 -0.000000 -0.000000
LeftUpLeg -39.508917 -7.353253 -1.946947
LeftLeg 17.953561 -0.000000 -0.000000
LeftFoot -20.034256 -6.426576 -15.638963
LeftToeBase 6.031140 -0.000000 -0.000000
Spine -47.094558 -1.476285 7.846823
RightShoulder -19.749755 5.908923 -30.610748
RightArm -5.556293 -6.154289 75.294746
RightForeArm 26.323300 0.000000 3.341639
RightHand 16.954356 -0.000000 -1.458799
RightHandThumb1 -24.326973 -0.000000 -32.862282
LeftShoulder -9.726991 2.749310 43.122952
LeftArm 20.932812 -10.953035 -40.309716
LeftForeArm 4.485681 -0.000000 0.968921
LeftHand -14.985919 -0.000000 -5.827200
LeftHandThumb1 -26.253704 0.000000 33.147579
Head 27.807470 -34.573101 11.127725
2499
root -7.801880 32.605300 -3.840313 52.799803 29.568546 3.137244
RightUpLeg -55.022709 -11.374168 22.703048
RightLeg 6.191208 -0.000000 -0.000000
RightFoot -18.724293 -17.530607 17.869799
RightToeBase 14.803691 -0.000000 -0.000000
LeftUpLeg -39.443794 -7.791900 -1.679200
LeftLeg 17.526471 -0.000000 -0.000000
LeftFoot -19.670080 -8.061529 -15.885021
LeftToeBase 6.486234 -0.000000 -0.000000
Spine -47.251320 -1.631289 8.357860
RightShoulder -19.876739 5.795187 -30.393699
RightArm -5.829044 -5.823344 75.366847
RightForeArm 26.141113 -0.000000 3.399938
RightHand 16.888058 -0.000000 -1.628994
RightHandThumb1 -24.326973 -0.000000 -32.862282
LeftShoulder -9.604011 2.464658 43.446164
LeftArm 21.098074 -11.039329 -39.837532
LeftForeArm 4.463546 -0.000000 1.233373
LeftHand -14.983934 -0.000000 -5.769842
LeftHandThumb1 -26.253704 0.000000 33.147579
Head 27.844757 -35.093700 11.343535
2500
root -7.833188 32.596097 -3.844677 52.872319 30.341483 2.992200
RightUpLeg -55.058677 -11.274350 22.941436
RightLeg 6.060666 -0.000000 -0.000000
RightFoot -18.882844 -17.922576 18.141607
RightToeBase 14.828221 -0.000000 -0.000000
LeftUpLeg -39.393759 -8.246839 -1.382596
LeftLeg 17.063814 -0.000000 -0.000000
LeftFoot -19.322484 -9.783187 -16.100376
LeftToeBase 6.602215 -0.000000 -0.000000
Spine -47.401209 -1.772424 8.903708
RightShoulder -20.027063 5.635842 -30.189085
RightArm -5.993636 -5.757643 75.483963
RightForeArm 26.139057 -0.000000 3.343724
RightHand 16.983486 -0.000000 -1.860025
RightHandThumb1 -24.326973 -0.000000 -32.862282
LeftShoulder -9.531552 2.484922 43.681818
LeftArm 21.498527 -11.148458 -39.276359
LeftForeArm 4.494210 0.000000 1.438210
LeftHand -15.041905 0.000000 -5.791864
LeftHandThumb1 -26.253704 0.000000 33.147579
Head 27.911354 -35.611746 11.528631
